{"title":"Solomon.Kane.2009.SWESUB.DVDRip.XviD.AC3.(5.1).-Zen_Bud","uid":5618407,"size":1469603380,"categoryP":"video","categoryS":"movies","magnet":"?xt=urn:btih:85b35a8898be8fd088b4fee2cceb4339e737a184&amp;dn=Solomon.Kane.2009.SWESUB.DVDRip.XviD.AC3.%285.1%29.-Zen_Bud&amp;tr=udp%3A%2F%2Ftracker.openbittorrent.com%3A80&amp;tr=udp%3A%2F%2Fopen.demonii.com%3A1337&amp;tr=udp%3A%2F%2Ftracker.coppersurfer.tk%3A6969&amp;tr=udp%3A%2F%2Fexodus.desync.com%3A6969","seeders":0,"leechers":1,"uploader":"Zen_Bud","files":-1,"time":1276160806,"description":"General\nComplete name                    : Solomon.Kane.avi\nFormat                           : AVI\nFile size                        : 1.37 GiB\nDuration                         : 1h 43mn\nOverall bit rate                 : 1 886 Kbps\n\nVideo\n\nCodec ID/Hint                    : XviD\nDuration                         : 1h 43mn\nBit rate                         : 1 683 Kbps\nWidth                            : 720 pixels\nHeight                           : 362 pixels\nDisplay aspect ratio             : 2.35:1\nStream size                      : 1.22 GiB (89%)\nWriting library                  : XviD 1.1.2 (UTC 2006-11-01)\n\nAudio\n\nFormat                           : AC-3\nDuration                         : 1h 43mn\nBit rate                         : 192 Kbps\nChannel(s)                       : 6 channels\nChannel positions                : Front: L C R, Side: L R, LFE\nSampling rate                    : 48.0 KHz\nStream size                      : 143 MiB (10%)\n\n\n","torrent":{"xt":"urn:btih:85b35a8898be8fd088b4fee2cceb4339e737a184","amp;dn":"Solomon.Kane.2009.SWESUB.DVDRip.XviD.AC3.%285.1%29.-Zen_Bud","amp;tr":["udp%3A%2F%2Ftracker.openbittorrent.com%3A80","udp%3A%2F%2Fopen.demonii.com%3A1337","udp%3A%2F%2Ftracker.coppersurfer.tk%3A6969","udp%3A%2F%2Fexodus.desync.com%3A6969"],"infoHash":"85b35a8898be8fd088b4fee2cceb4339e737a184","infoHashBuffer":{"type":"Buffer","data":[133,179,90,136,152,190,143,208,136,180,254,226,204,235,67,57,231,55,161,132]},"announce":[],"urlList":[]}}